<svg id="Capa_1" enable-background="new 0 0 512 512" height="512" viewBox="0 0 512 512" width="512" xmlns="http://www.w3.org/2000/svg"><g><path d="m60 360v-254.966c0-9.169 3.472-18.014 9.764-24.683 46.658-49.451 112.795-80.325 186.142-80.351 141.383-.051 256.095 114.619 256.094 256.002-.001 72.22-29.907 137.456-78.011 183.998h-313.989z" fill="#9bcf1b"/><path d="m475 170h22.196c9.585 26.879 14.804 55.83 14.804 86 0 33.187-6.315 64.899-17.809 93.999-6.999 17.721-64.191-9.999-64.191-9.999h-55c-2.761 0-5-2.239-5-5v-250c0-2.761 2.239-5 5-5h20c2.761 0 5 2.239 5 5v40c0 2.761 2.239 5 5 5h30c2.761 0 5 2.239 5 5v50c0 2.761 2.239 5 5 5h20c2.761 0 5-2.239 5-5v-10c0-2.761 2.239-5 5-5zm-200 90h60c2.761 0 5-2.239 5-5v-200c0-2.761-2.239-5-5-5h-60c-2.761 0-5 2.239-5 5v200c0 2.761 2.239 5 5 5z" fill="#84b017"/><path d="m251 100h-50v-65c0-13.807 11.193-25 25-25 13.807 0 25 11.193 25 25z" fill="#f44545"/><path d="m226 93.667c-4.142 0-7.5-3.358-7.5-7.5v-44.319c0-4.142 3.358-7.5 7.5-7.5 4.142 0 7.5 3.358 7.5 7.5v44.319c0 4.142-3.358 7.5-7.5 7.5z" fill="#f87b67"/><path d="m450 400h-405.69c-27.963-41.027-44.31-90.604-44.31-144 0-68.173 26.648-130.123 70.096-176h146.379c34.066 0 66.526 14.479 89.286 39.825l84.24 93.813 59.999 36.362z" fill="#c2eaf2"/><path d="m472 400h-282.5c-70.968 0-128.5-57.531-128.5-128.5v-31.5c0-88.365 71.634-160 160-160h57.475c34.066 0 66.526 14.478 89.286 39.825l78.069 86.94c4.092 4.557 8.833 8.486 14.071 11.66l.099.06c1.59 8.909 6.935 16.704 14.673 21.397l18.059 10.951c11.962 7.25 19.268 14.68 19.268 28.667v80.5c0 22.091-17.909 40-40 40z" fill="#fff5f5"/><path d="m228 220h20v180h-20zm253 70c-6.075 0-11 4.925-11 11s4.925 11 11 11h31v-22zm-11 43c0 6.075 4.925 11 11 11h31v-22h-31c-6.075 0-11 4.925-11 11z" fill="#c2eaf2"/><path d="m402.498 211.748c4.827 5.31 7.502 12.229 7.502 19.405 0 15.932-12.915 28.847-28.847 28.847h-193.306c-15.932 0-28.847-12.915-28.847-28.847v-92.305c0-15.933 12.915-28.848 28.847-28.848h95.61c16.905 0 33.025 7.131 44.396 19.64z" fill="#754ca0"/><path d="m402.498 211.748c4.827 5.31 7.502 12.229 7.502 19.405 0 15.931-12.916 28.847-28.847 28.847h-24.583c-53.36-34.03-93.278-87.288-109.974-150h36.863c16.905 0 33.025 7.131 44.396 19.64z" fill="#865cb2"/><path d="m217.847 260h-30c-15.931 0-28.847-12.916-28.847-28.848v-92.305c0-15.931 12.916-28.847 28.847-28.847h30c-15.931 0-28.847 12.916-28.847 28.847v92.305c0 15.932 12.916 28.848 28.847 28.848z" fill="#644189"/><path d="m443.778 430c-46.756 50.435-113.58 82-187.778 82-53.218 0-102.642-16.238-143.59-44.031-16.928-11.49-8.762-37.969 11.697-37.969z" fill="#b9c3cd"/><path d="m480 400h-180c0-49.706 40.294-90 90-90s90 40.294 90 90zm-370-90c-38.487 0-71.332 24.158-84.197 58.138 5.414 11.094 11.607 21.738 18.507 31.862h155.69c0-49.706-40.294-90-90-90z" fill="#a6e0ec"/><path d="m460 400c0 38.66-31.34 70-70 70s-70-31.34-70-70 31.34-70 70-70 70 31.34 70 70zm-350-70c-36.597 0-66.634 28.085-69.736 63.878 19.374 30.25 44.935 56.157 74.899 75.934 36.25-2.643 64.837-32.889 64.837-69.812 0-38.66-31.34-70-70-70z" fill="#4e5a61"/><path d="m140 400c0 16.568-13.431 30-30 30s-30-13.432-30-30 13.431-30 30-30 30 13.432 30 30zm250-30c-16.569 0-30 13.432-30 30s13.431 30 30 30 30-13.432 30-30-13.431-30-30-30z" fill="#b9c3cd"/><path d="m122.403 183.333c0 4.142-3.358 7.5-7.5 7.5h-20v20c0 4.142-3.358 7.5-7.5 7.5s-7.5-3.358-7.5-7.5v-20h-20c-4.142 0-7.5-3.358-7.5-7.5s3.358-7.5 7.5-7.5h20v-20c0-4.142 3.358-7.5 7.5-7.5s7.5 3.358 7.5 7.5v20h20c4.142 0 7.5 3.358 7.5 7.5z" fill="#f44545"/><path d="m.031 260h499.313c6.89 0 12.633 5.51 12.656 12.401v.13 17.469h-509.761c-1.305-9.835-2.052-19.846-2.208-30z" fill="#fd9a9a"/><path d="m61.586 290h-59.347c-1.305-9.835-2.052-19.846-2.208-30h61.19c-7.357 0-13.124 6.249-12.626 13.589.111 1.638.238 3.271.379 4.899.568 6.523 6.065 11.512 12.612 11.512z" fill="#fc7979"/><path d="m512 272.53v7.47h-32c-11.046 0-20-8.954-20-20v-41.515l32.732 19.837c11.962 7.25 19.268 20.221 19.268 34.208z" fill="#f44545"/><path d="m512 272.53v7.47h-12c-11.046 0-20-8.954-20-20v-29.394l12.732 7.716c11.962 7.25 19.268 20.221 19.268 34.208z" fill="#fb5858"/><path d="m272.804 56.088c-2.93 2.929-7.678 2.929-10.607 0-1.464-1.465-2.196-3.385-2.196-5.304s.732-3.839 2.196-5.304c2.364-2.363 3.666-5.502 3.666-8.838 0-3.337-1.302-6.476-3.666-8.839-2.928-2.93-2.928-7.678 0-10.607 2.93-2.929 7.678-2.929 10.607 0 5.196 5.197 8.059 12.104 8.059 19.446-.001 7.343-2.863 14.249-8.059 19.446zm20 15c18.992-18.995 18.992-49.898 0-68.892-2.93-2.929-7.678-2.929-10.607 0-2.928 2.93-2.928 7.678 0 10.607 13.146 13.146 13.146 34.533 0 47.677-1.464 1.465-2.196 3.385-2.196 5.304s.732 3.839 2.196 5.304c2.929 2.929 7.677 2.929 10.607 0zm-115.608-53.891c2.93-2.929 7.678-2.929 10.607 0 1.465 1.464 2.197 3.384 2.197 5.303s-.732 3.839-2.196 5.304c-2.364 2.363-3.666 5.502-3.666 8.838 0 3.337 1.302 6.476 3.666 8.839 2.928 2.93 2.928 7.678 0 10.607-2.93 2.929-7.678 2.929-10.607 0-5.196-5.197-8.059-12.104-8.059-19.446s2.862-14.248 8.058-19.445zm-20-15c-18.992 18.995-18.992 49.898 0 68.892 2.93 2.929 7.678 2.929 10.607 0 2.928-2.93 2.928-7.678 0-10.607-13.146-13.146-13.146-34.533 0-47.677 1.465-1.466 2.197-3.386 2.197-5.305s-.732-3.839-2.196-5.304c-2.93-2.928-7.678-2.928-10.608.001z" fill="#c2eaf2"/></g></svg>