<svg id="Capa_1" enable-background="new 0 0 512 512" height="512" viewBox="0 0 512 512" width="512" xmlns="http://www.w3.org/2000/svg"><g><path d="m55.27 390c-11.123 0-21.288-6.226-26.418-16.098-18.336-35.287-28.698-75.384-28.698-117.902 0-12.219.856-24.238 2.511-36 .262-1.866 7.184-6.314 7.486-8.166 2.869-17.574 6.242-28.655 12.496-44.833.478-1.237-4.387-5.773-3.89-7 38.35-94.769 131.783-161.338 240.586-159.981 139.64 1.742 252.649 116.273 252.657 255.966.002 43.094-10.64 83.701-29.441 119.335-4.791 9.08-14.3 14.68-24.564 14.68h-402.725z" fill="#644189"/><path d="m91.306 390c-19.768-32.126-31.17-69.954-31.17-110.445 0-116.532 94.44-211 210.937-211s210.937 94.468 210.937 211c0 40.491-11.402 78.319-31.17 110.445z" fill="#754ca0"/><path d="m62.782 423.788c-13.502-15.55-25.159-32.744-34.631-51.244 5.012-1.454 10.266-2.316 15.68-2.503 9.14-.317 17.877 1.255 25.85 4.357 18.423 7.166 38.834 7.67 57.17.284 7.495-3.019 15.682-4.681 24.258-4.681 8.084 0 15.823 1.477 22.963 4.175 19.077 7.211 39.965 7.211 59.042 0 7.14-2.699 14.879-4.175 22.963-4.175s15.823 1.477 22.963 4.175c19.077 7.211 39.965 7.211 59.042 0 7.14-2.699 14.879-4.175 22.963-4.175 8.575 0 16.762 1.661 24.257 4.68 18.337 7.386 38.748 6.882 57.172-.284 7.973-3.101 16.709-4.673 25.849-4.356 5.414.188 10.668 1.049 15.68 2.503-9.206 17.979-20.475 34.726-33.496 49.927-9.322 10.883-22.862 17.439-37.188 17.3-9.923-.096-19.864-2.025-29.31-5.595-7.14-2.699-14.879-4.175-22.963-4.175s-15.823 1.477-22.963 4.175c-19.077 7.211-39.965 7.211-59.042 0-7.14-2.699-14.879-4.175-22.963-4.175s-15.823 1.477-22.963 4.175c-19.077 7.211-39.965 7.211-59.042 0-7.14-2.699-14.879-4.175-22.963-4.175s-15.823 1.477-22.963 4.175c-10.154 3.838-20.879 5.779-31.541 5.586-13.002-.236-25.297-6.155-33.824-15.974zm388.236-253.788c-10.49 0-18.994 8.507-18.994 19s8.504 19 18.994 19 18.994-8.507 18.994-19-8.503-19-18.994-19z" fill="#9773bd"/><path d="m335.053 440h-69.979v-130h69.979z" fill="#7cd2e3"/><path d="m290.067 440h-29.991v-130h29.991z" fill="#44bfd7"/><path d="m309.685 59.996c.439 4.591.481 24.578-.091 30.004-1.13 10.711-5.798 21.12-14.005 29.329-13.41 13.414-33.381 17.83-51.194 11.319l-89.386-32.668-89.385 32.668c-17.813 6.51-37.784 2.094-51.194-11.319-8.208-8.21-12.876-18.619-14.006-29.332-.571-5.425-.529-25.407-.091-29.997.947-9.915 5.646-19.595 14.097-27.182 13.41-12.038 33.381-16.001 51.194-10.158l89.385 29.318 89.385-29.318c17.813-5.843 37.784-1.88 51.194 10.158 8.451 7.586 13.15 17.264 14.097 27.178z" fill="#f44545"/><path d="m295.589 94.699c-13.41 12.039-33.381 16.002-51.194 10.159l-89.386-29.318-89.386 29.318c-17.812 5.843-37.783 1.88-51.193-10.158-19.035-17.088-19.035-44.794 0-61.882 13.41-12.038 33.381-16.001 51.193-10.159l89.386 29.318 89.385-29.318c17.813-5.843 37.784-1.88 51.194 10.159 19.036 17.088 19.036 44.793.001 61.881z" fill="#fb5858"/><path d="m290.067 45c0 8.284-11.19 15-24.992 15-13.803 0-24.992-6.716-24.992-15s11.19-15 24.992-15 24.992 6.716 24.992 15z" fill="#fd9a9a"/><path d="m170.103 95v90c0 6.531-4.173 12.087-9.997 14.146v20.854h-157.441c2.943-20.918 8.413-41.024 16.092-60h121.355v-65c0-8.284 6.714-15 14.995-15s14.996 6.716 14.996 15z" fill="#a2abb8"/><path d="m356.047 300v20c0 5.523-4.476 10-9.997 10h-91.972c-5.521 0-9.997-4.477-9.997-10v-20c0-5.523 4.476-10 9.997-10h15.995c0-38.598-31.392-70-69.979-70h-99.97c-16.563 0-29.991-13.432-29.991-30s13.428-30 29.991-30h99.97c71.661 0 129.961 58.317 129.961 130h15.995c5.521 0 9.997 4.477 9.997 10zm-200.94-180c8.282 0 14.995-6.716 14.995-15v-60c0-8.284-6.714-15-14.995-15s-14.995 6.716-14.995 15v60c0 8.284 6.713 15 14.995 15z" fill="#c8d2dc"/><path d="m346.05 330h-55.983c-5.521 0-9.997-4.477-9.997-10v-20c0-5.523 4.476-10 9.997-10h55.983c5.521 0 9.997 4.477 9.997 10v20c0 5.523-4.476 10-9.997 10zm-65.98-130c-5.771-5.673-33.823-22.167-42.166-17.448-5.921 3.349 13.241 18.887 32.169 37.448 11.452 11.231 29.777 40.451 34.811 36.052 5.113-4.467-3.874-35.468-24.814-56.052z" fill="#dce6eb"/><path d="m418.028 241c0 10.493-8.504 19-18.994 19s-18.994-8.507-18.994-19 8.504-19 18.994-19 18.994 8.507 18.994 19z" fill="#a6e0ec"/><path d="m440.022 419c0 10.493-8.504 19-18.994 19-3.306 0-6.414-.845-9.122-2.331-5.003 2.76-10.753 4.331-16.871 4.331-6.041 0-11.725-1.532-16.684-4.228-4.542 14.059-17.734 24.228-33.301 24.228-19.324 0-34.989-15.67-34.989-35s15.665-35 34.989-35c6.041 0 11.725 1.532 16.684 4.228 4.542-14.059 17.735-24.228 33.301-24.228 18.383 0 33.455 14.181 34.879 32.204 6.012 3.19 10.108 9.514 10.108 16.796z" fill="#def4f8"/><path d="m418.028 241c0 2.382-.438 4.661-1.238 6.762-2.1.8-4.379 1.238-6.76 1.238-10.49 0-18.994-8.507-18.994-19 0-2.382.438-4.661 1.238-6.762 2.1-.8 4.379-1.238 6.76-1.238 10.49 0 18.994 8.507 18.994 19zm10.997 49c-16.011 0-28.991 12.984-28.991 29s12.98 29 28.991 29 28.991-12.984 28.991-29-12.98-29-28.991-29zm-82.798 169.98c-.391.013-.783.02-1.177.02-19.324 0-34.989-15.67-34.989-35s15.665-35 34.989-35c6.041 0 11.725 1.532 16.684 4.228 4.114-12.735 15.327-22.278 28.972-23.962-9.616 6.673-15.26 17.794-15.028 29.445-5.567-.929-11.44-.521-17.15 1.452-18.266 6.31-27.96 26.236-21.652 44.507 1.959 5.669 5.228 10.514 9.351 14.31z" fill="#c2eaf2"/><path d="m458.016 319c0 4.121-.859 8.041-2.408 11.591-3.549 1.55-7.468 2.409-11.587 2.409-16.011 0-28.991-12.984-28.991-29 0-4.121.859-8.041 2.408-11.591 3.549-1.55 7.468-2.409 11.587-2.409 16.011 0 28.991 12.984 28.991 29z" fill="#def4f8"/><path d="m60.994 421.706c3.086.722 6.087 1.664 8.986 2.808 18.668 7.368 39.391 6.756 58.165-.339 7.14-2.699 14.879-4.175 22.963-4.175s15.823 1.477 22.963 4.175c19.077 7.21 39.965 7.21 59.042 0 7.14-2.699 14.879-4.175 22.963-4.175s15.823 1.477 22.963 4.175c19.077 7.21 39.965 7.21 59.042 0 7.14-2.699 14.879-4.175 22.963-4.175s15.823 1.477 22.963 4.175c18.774 7.095 39.497 7.707 58.165.339 2.899-1.145 5.9-2.086 8.986-2.808-18.004 21.187-39.395 39.404-63.337 53.813-1.279-.418-2.551-.866-3.814-1.343-7.14-2.699-14.879-4.175-22.963-4.175s-15.823 1.477-22.963 4.175c-19.077 7.21-39.965 7.21-59.042 0-7.14-2.699-14.879-4.175-22.963-4.175s-15.824 1.477-22.963 4.175c-19.077 7.21-39.965 7.21-59.042 0-7.14-2.699-14.879-4.175-22.963-4.175s-15.823 1.477-22.963 4.175c-1.263.477-2.535.925-3.814 1.343-23.941-14.409-45.333-32.626-63.337-53.813z" fill="#a6e0ec"/><path d="m122.161 474.197c2.013-.601 4.01-1.275 5.985-2.022 7.14-2.699 14.879-4.175 22.963-4.175s15.823 1.477 22.963 4.175c19.077 7.21 39.965 7.21 59.042 0 7.14-2.699 14.879-4.175 22.963-4.175s15.823 1.477 22.963 4.175c19.077 7.21 39.965 7.21 59.042 0 7.14-2.699 14.879-4.175 22.963-4.175s15.823 1.477 22.963 4.175c1.975.747 3.971 1.421 5.985 2.022-38.956 23.975-84.822 37.803-133.916 37.803s-94.96-13.828-133.916-37.803z" fill="#7cd2e3"/><path d="m310.061 30c0 4.142-3.357 7.5-7.498 7.5h-4.999v5c0 4.142-3.357 7.5-7.498 7.5s-7.498-3.358-7.498-7.5v-5h-4.999c-4.141 0-7.498-3.358-7.498-7.5 0-4.142 3.357-7.5 7.498-7.5h4.999v-5c0-4.142 3.357-7.5 7.498-7.5s7.498 3.358 7.498 7.5v5h4.999c4.141 0 7.498 3.358 7.498 7.5z" fill="#fff5f5"/><path d="m417.528 137.5c0 4.142-3.357 7.5-7.498 7.5h-4.998v5c0 4.142-3.357 7.5-7.498 7.5s-7.498-3.358-7.498-7.5v-5h-4.999c-4.141 0-7.498-3.358-7.498-7.5 0-4.142 3.357-7.5 7.498-7.5h4.999v-5c0-4.142 3.357-7.5 7.498-7.5s7.498 3.358 7.498 7.5v5h4.998c4.142 0 7.498 3.358 7.498 7.5z" fill="#44bfd7"/></g></svg>