<svg id="Capa_1" enable-background="new 0 0 512 512" height="512" viewBox="0 0 512 512" width="512" xmlns="http://www.w3.org/2000/svg"><g><path d="m0 256c0-141.303 114.482-255.867 255.754-256 139.339-.131 253.82 112.19 256.208 251.509 1.419 82.812-36.491 156.828-96.286 204.602-1.734 1.385-4.187 1.378-5.961.044-42.805-32.19-96.032-51.268-153.715-51.268-57.841 0-111.201 19.182-154.067 51.533-1.565 1.181-3.731 1.187-5.264-.034-58.909-46.902-96.669-119.234-96.669-200.386z" fill="#ffb52d"/><path d="m452 256c0 108.248-87.752 196-196 196s-196-87.752-196-196 87.752-196 196-196 196 87.752 196 196z" fill="#ffc14f"/><path d="m470 290c0 4.142-3.358 7.5-7.5 7.5h-5v5c0 4.142-3.358 7.5-7.5 7.5s-7.5-3.358-7.5-7.5v-5h-5c-4.142 0-7.5-3.358-7.5-7.5s3.358-7.5 7.5-7.5h5v-5c0-4.142 3.358-7.5 7.5-7.5s7.5 3.358 7.5 7.5v5h5c4.142 0 7.5 3.358 7.5 7.5z" fill="#dd7d00"/><path d="m477.5 217.5c0 4.142-3.358 7.5-7.5 7.5h-5v5c0 4.142-3.358 7.5-7.5 7.5s-7.5-3.358-7.5-7.5v-5h-5c-4.142 0-7.5-3.358-7.5-7.5 0-4.142 3.358-7.5 7.5-7.5h5v-5c0-4.142 3.358-7.5 7.5-7.5s7.5 3.358 7.5 7.5v5h5c4.142 0 7.5 3.358 7.5 7.5z" fill="#fff5f5"/><path d="m136 123.333c0-27.614 22.386-50 50-50h50v170c0 27.614-22.386 50-50 50h-40c-5.523 0-10-4.477-10-10z" fill="#644189"/><path d="m366 293.333h-40c-27.614 0-50-22.386-50-50v-170h50c27.614 0 50 22.386 50 50v160c0 5.523-4.477 10-10 10z" fill="#754ca0"/><path d="m416 383.333v72.518c-43.827 35.134-99.459 56.149-160 56.149-5.374 0-10.709-11.674-16-12-54.324-3.35-104.063-23.642-144-55.657v-61.01c0-38.66 31.34-70 70-70h12.595l20.797 7.344c36.636 12.937 76.592 12.967 113.248.086l21.143-7.43h12.217c38.66 0 70 31.341 70 70z" fill="#9773bd"/><path d="m241.858 376.973-63.64-63.64h17.782l5.634 1.401c37.611 9.353 76.995 8.87 114.366-1.401h17.782l-63.64 63.64c-7.81 7.81-20.474 7.81-28.284 0z" fill="#b9a1d3"/><path d="m146 223.333c-13.807 0-25-11.193-25-25v-10c0-13.807 11.193-25 25-25 13.807 0 25 11.193 25 25v10c0 13.807-11.193 25-25 25z" fill="#faa68e"/><path d="m316 313.333-52.929 52.929c-3.905 3.905-10.237 3.905-14.142 0l-52.929-52.929h30v-39.376c0-16.347 12.816-30.164 29.157-30.612 16.954-.465 30.843 13.14 30.843 29.988v40z" fill="#ffbeaa"/><path d="m391 188.333v10c0 13.807-11.193 25-25 25-2.468 0-4.853-.358-7.105-1.024-15.733 41.513-55.868 71.024-102.895 71.024-60.751 0-110-49.249-110-110v-40c0-60.751 49.249-110 110-110 60.751 0 110 49.249 110 110v20c13.807 0 25 11.193 25 25z" fill="#faa68e"/><path d="m366 143.333v40c0 50.792-34.425 93.543-81.216 106.195-9.023 2.44-18.545 2.44-27.568 0-46.791-12.651-81.216-55.403-81.216-106.195v-40c0-55.663 41.345-101.669 95-108.985 53.655 7.316 95 53.322 95 108.985z" fill="#ffbeaa"/><path d="m223.5 150.833c0 8.284-6.716 15-15 15s-15-6.716-15-15 6.716-15 15-15 15 6.716 15 15zm80-15c-8.284 0-15 6.716-15 15s6.716 15 15 15 15-6.716 15-15-6.716-15-15-15z" fill="#784132"/><path d="m226 143.333c0 4.142-3.358 7.5-7.5 7.5s-7.5-3.358-7.5-7.5 3.358-7.5 7.5-7.5 7.5 3.358 7.5 7.5zm87.5-7.5c-4.142 0-7.5 3.358-7.5 7.5s3.358 7.5 7.5 7.5 7.5-3.358 7.5-7.5-3.358-7.5-7.5-7.5z" fill="#fff5f5"/><path d="m376 123.333h-90c-27.614 0-50-22.386-50-50v-40h50c49.706 0 90 40.295 90 90z" fill="#754ca0"/><path d="m226 33.333h34.75v40c0 27.614-22.386 50-50 50h-74.75c0-49.705 40.294-90 90-90z" fill="#644189"/><path d="m130 475.896c-11.966-6.779-23.333-14.493-34-23.044v-69.518c0-38.66 31.34-70 70-70h12.595c-28.19 9.043-48.595 35.472-48.595 66.666zm218.25-55.896c-4.142 0-7.5 3.358-7.5 7.5v70.138c5.075-1.78 10.077-3.715 15-5.8v-64.338c0-4.142-3.358-7.5-7.5-7.5zm-177 7.5v66.138c-5.075-1.78-10.077-3.715-15-5.8v-60.338c0-4.142 3.358-7.5 7.5-7.5s7.5 3.358 7.5 7.5z" fill="#865cb2"/><path d="m285.684 424.121c-2.929-2.929-2.929-7.678 0-10.607l81.317-81.317c2.929-2.929 7.678-2.929 10.607 0 2.929 2.929 2.929 7.678 0 10.607l-81.317 81.317c-2.93 2.929-7.678 2.929-10.607 0z" fill="#c8d2dc"/><path d="m308.665 404.675-3.536-3.536c-2.929-2.929-2.929-7.678 0-10.607l31.82-31.82c2.929-2.929 7.678-2.929 10.607 0l3.536 3.536c2.929 2.929 2.929 7.678 0 10.607l-31.82 31.82c-2.93 2.929-7.678 2.929-10.607 0z" fill="#7cd2e3"/><path d="m239.902 469.902c-5.858-5.858-5.858-15.355 0-21.213l66.995-66.995c5.858-5.858 15.355-5.858 21.213 0 5.858 5.858 5.858 15.355 0 21.213l-66.995 66.995c-5.858 5.858-15.355 5.858-21.213 0z" fill="#fff5f5"/><path d="m296.14 473.468c-2.929 2.929-7.678 2.929-10.607 0l-49.198-49.198c-2.929-2.929-2.929-7.678 0-10.607 2.929-2.929 7.678-2.929 10.607 0l49.198 49.198c2.929 2.929 2.929 7.678 0 10.607z" fill="#a6e0ec"/><path d="m293.08 415.349c2.929 2.929 2.929 7.678 0 10.607s-7.678 2.929-10.607 0l-9.902-9.902 10.606-10.606zm19.02-19.02-9.902-9.902-10.607 10.606 9.902 9.902c2.929 2.929 7.678 2.929 10.607 0 2.929-2.928 2.929-7.677 0-10.606z" fill="#dce6eb"/><path d="m262.08 511.928c-2.021.047-4.048.072-6.08.072-12.888 0-25.553-.953-37.93-2.792-1.892-1.819-3.07-4.376-3.07-7.208v-40c0-5.523 4.477-10 10-10h35c16.569 0 30 13.432 30 30 0 15.869-12.322 28.86-27.92 29.928z" fill="#ffc14f"/><path d="m215 480v-18c0-5.523 4.477-10 10-10h35c12.685 0 23.532 7.874 27.919 19-4.387 11.126-15.234 19-27.919 19h-35c-5.523 0-10-4.477-10-10z" fill="#fff04a"/><path d="m96 452h130v58.261c-48.861-5.704-93.52-25.166-130-54.409z" fill="#b9a1d3"/><path d="m152.016 490h73.984v20.261c-26.057-3.042-50.92-9.996-73.984-20.261z" fill="#a88ac8"/><path d="m230 453.5v57c0 .065-.001.13-.002.195-5.044-.509-10.044-1.164-14.998-1.961v-55.234c0-4.142 3.358-7.5 7.5-7.5s7.5 3.358 7.5 7.5z" fill="#d3c4e3"/><path d="m288.277 174.116 58.194 13.979c6.91 1.66 11.786 7.889 11.786 15.055 0 50.229-40.358 90.947-90.142 90.947h-24.231c-49.784 0-90.142-40.718-90.142-90.947 0-7.166 4.876-13.395 11.786-15.055l58.194-13.979c10.575-2.54 21.407-3.823 32.277-3.823 10.871 0 21.704 1.283 32.278 3.823z" fill="#fff5f5"/><path d="m280.894 293.19c-4.174.598-8.441.907-12.779.907h-24.231c-49.784 0-90.142-40.718-90.142-90.947 0-7.166 4.876-13.395 11.786-15.055l8.699-2.09c1.405 57.632 48.134 104.287 106.667 107.185z" fill="#dce6eb"/><path d="m173.808 236.366-9.036-69.414c-1.958-15.036-15.783-25.678-30.82-23.72s-25.677 15.784-23.72 30.82l7.1 54.54c1.601 12.302 12.913 21.009 25.216 19.407l24.791-3.227c4.107-.535 7.004-4.298 6.469-8.406zm-33.196-3.241c-4.101.534-7.872-2.368-8.405-6.469l-7.1-54.54c-.89-6.835 3.947-13.12 10.782-14.009s13.119 3.947 14.009 10.782l8.068 61.977z" fill="#dce6eb"/><path d="m379.92 143.232c-15.037-1.958-28.863 8.684-30.82 23.72l-9.036 69.414c-.535 4.108 2.362 7.871 6.469 8.406l24.791 3.227c12.303 1.602 23.615-7.105 25.216-19.407l7.1-54.54c1.957-15.036-8.684-28.863-23.72-30.82zm8.845 28.884-7.1 54.54c-.534 4.101-4.304 7.003-8.406 6.469l-17.354-2.259 8.068-61.977c.89-6.834 7.174-11.671 14.009-10.782 6.836.889 11.673 7.174 10.783 14.009z" fill="#fff5f5"/><path d="m301.397 247.146c-25.457 10.982-65.338 10.982-90.795 0-3.803-1.642-5.556-6.055-3.915-9.857 1.223-2.835 3.987-4.531 6.89-4.531.992 0 2 .198 2.968.615 21.387 9.229 57.523 9.229 78.91 0 3.802-1.638 8.216.111 9.857 3.916 1.642 3.802-.111 8.215-3.915 9.857zm-84.368-30c21.854 9.428 56.089 9.428 77.942 0 3.803-1.642 5.556-6.055 3.915-9.857-1.642-3.805-6.056-5.556-9.857-3.916-17.903 7.725-48.154 7.725-66.058 0-.968-.417-1.976-.615-2.968-.615-2.903 0-5.667 1.696-6.89 4.531-1.64 3.802.113 8.215 3.916 9.857z" fill="#dce6eb"/><g fill="#faa68e"><path d="m391 198.626c0 7.282-3.114 13.836-8.082 18.405-1.913-11.168-.936-22.641 2.839-33.324l2.374-6.72c1.832 3.476 2.869 7.437 2.869 11.639z"/><path d="m145.998 223.333c-13.806-.001-24.998-11.194-24.998-25v-10c0-13.806 11.192-24.999 24.998-25-6.071 4.561-9.998 11.822-9.998 20v20c0 8.179 3.927 15.439 9.998 20z"/></g></g></svg>