<svg id="Capa_1" enable-background="new 0 0 512 512" height="512" viewBox="0 0 512 512" width="512" xmlns="http://www.w3.org/2000/svg"><g><path d="m140.621 484.586c-83.647-42.304-140.925-129.169-140.62-229.382.429-140.792 115.583-255.407 256.376-255.204 141.212.204 255.623 114.741 255.623 256 0 23.094-3.058 45.474-8.792 66.757-1.553 5.767-6.78 9.778-12.752 9.778h-333.956v142.339c0 8.153-8.604 13.392-15.879 9.712z" fill="#44bfd7"/><path d="m61.109 90h389.782c38.106 44.696 61.109 102.662 61.109 166 0 10.496-.632 20.844-1.859 31.009h-508.282c-1.227-10.165-1.859-20.513-1.859-31.009 0-63.338 23.003-121.304 61.109-166z" fill="#2cb3cd"/><path d="m512 181.275v20c0 17.273-14.002 31.275-31.275 31.275h-249.586l-14.473-10.217-83.667 3-14.999 7.217h-81.678c-17.273 0-31.275-14.002-31.275-31.275v-20c0-17.273 14.002-31.275 31.275-31.275h444.403c17.273 0 31.275 14.002 31.275 31.275z" fill="#f5e8b4"/><path d="m256 512c-7.901 0-15.719-.358-23.438-1.059-7.887-2.68-13.562-10.148-13.562-18.941v-150c0-11.046 8.954-20 20-20h264.411c-29.108 109.398-128.847 190-247.411 190z" fill="#ffe7c0"/><path d="m270 511.624c-4.635.25-9.303.376-14 .376-41.756 0-81.177-9.997-116-27.729v-142.271c0-11.046 8.954-20 20-20h110z" fill="#fff5f5"/><path d="m166.139 495.784c-8.962-3.36-17.686-7.208-26.139-11.513v-142.271c0-11.046 8.954-20 20-20h26.139c-11.046 0-20 8.954-20 20z" fill="#ffe7c0"/><path d="m220 431.63v40.74c0 3.129-3.498 4.986-6.09 3.233l-30.112-20.37c-2.288-1.548-2.288-4.918 0-6.466l30.112-20.37c2.592-1.753 6.09.103 6.09 3.233zm-6.09-73.233-30.112 20.37c-2.288 1.548-2.288 4.918 0 6.466l30.112 20.37c2.592 1.753 6.09-.104 6.09-3.233v-40.74c0-3.13-3.498-4.986-6.09-3.233z" fill="#fb5858"/><path d="m512 177.5c0 17.273-14.002 31.275-31.275 31.275h-444.403c-17.273 0-31.275-14.002-31.275-31.275 0-17.273 14.002-31.275 31.275-31.275h144.23l5.587 7.109h85.333l22.217-7.109h83.518l4.043 5.275 96.75 1.25c2.931 0 8.492-6.122 11.182-5.368 13.164 3.689 22.818 15.776 22.818 30.118z" fill="#fff5f5"/><path d="m101.24 108.275v253.594c0 17.273-14.002 31.275-31.275 31.275-17.273 0-31.275-14.002-31.275-31.275v-253.594c0-17.273 14.002-31.275 31.275-31.275 17.273 0 31.275 14.002 31.275 31.275z" fill="#c8d2dc"/><path d="m69.965 364.031c-4.142 0-7.5-3.358-7.5-7.5v-235.031c0-4.142 3.358-7.5 7.5-7.5 4.142 0 7.5 3.358 7.5 7.5v235.031c0 4.142-3.358 7.5-7.5 7.5z" fill="#b9c3cd"/><path d="m109.965 335v131.289c-33.286-23.159-60.813-54.018-80-89.997v-41.292c0-8.284 6.716-15 15-15h50c8.285 0 15 6.716 15 15z" fill="#644189"/><path d="m109.965 335v20.213c0 8.284-6.716 15-15 15h-50c-8.284 0-15-6.716-15-15v-20.213c0-8.284 6.716-15 15-15h50c8.285 0 15 6.716 15 15z" fill="#754ca0"/><path d="m231.139 232.55h-113.138v-23.775l26-8.646c28.955-9.628 60.639-6.485 87.137 8.646v23.775z" fill="#f44545"/><path d="m180.552 146.225h113.137l-62.55 62.551h-113.138zm300.173 0h-103.518l-62.55 62.551h113.137l61.392-61.393c-2.692-.754-5.529-1.158-8.461-1.158z" fill="#fb5858"/><path d="m90 180c0 11.046-8.954 20-20 20s-20-8.954-20-20 8.954-20 20-20 20 8.954 20 20z" fill="#909ba6"/><path d="m80 180c0 5.523-4.477 10-10 10s-10-4.477-10-10 4.477-10 10-10 10 4.477 10 10z" fill="#7e8b96"/><path d="m415 125v100c0 30.327-24.673 55-55 55s-55-24.673-55-55c0-5.522 4.477-10 10-10s10 4.478 10 10c0 19.299 15.701 35 35 35s35-15.701 35-35v-100c0-19.299-15.701-35-35-35s-35 15.701-35 35v46.35c0 5.522-4.477 10-10 10s-10-4.478-10-10v-46.35c0-30.327 24.673-55 55-55s55 24.673 55 55z" fill="#533672"/><path d="m223.588 294.696c2.929 2.93 2.929 7.678 0 10.607-1.465 1.464-3.385 2.196-5.304 2.196s-3.839-.732-5.304-2.196c-2.363-2.364-5.502-3.666-8.838-3.666-3.337 0-6.476 1.302-8.839 3.666-2.93 2.928-7.678 2.928-10.607 0-2.929-2.93-2.929-7.678 0-10.607 5.197-5.196 12.104-8.059 19.446-8.059 7.342.001 14.249 2.863 19.446 8.059zm15-20c-18.995-18.992-49.898-18.992-68.892 0-2.929 2.93-2.929 7.678 0 10.607 2.93 2.928 7.678 2.928 10.607 0 13.146-13.146 34.533-13.146 47.677 0 1.465 1.464 3.385 2.196 5.304 2.196s3.839-.732 5.304-2.196c2.929-2.929 2.929-7.677 0-10.607z" fill="#c2eaf2"/><path d="m318.153 364.031h170.003c-32.242 69.17-94.487 121.537-170.003 140.371z" fill="#ffd399"/><path d="m430 381.35h-140c-16.569 0-30-13.431-30-30v-125.715c0-16.569 13.431-30 30-30h140c16.569 0 30 13.431 30 30v125.715c0 16.568-13.431 30-30 30z" fill="#9bcf1b"/><path d="m317.5 381.35h-27.5c-16.569 0-30-13.432-30-30v-125.715c0-16.568 13.431-30 30-30h27.5c-16.569 0-30 13.432-30 30v125.715c0 16.568 13.431 30 30 30z" fill="#84b017"/><path d="m420 293.414c0 33.137-26.863 60-60 60s-60-26.863-60-60 26.863-60 60-60 60 26.862 60 60z" fill="#6e9213"/><path d="m425.105 249.502-67.508 67.509c-1.407 1.406-3.314 2.196-5.304 2.196s-3.896-.79-5.304-2.196l-26.641-26.641c-2.929-2.93-2.929-7.678 0-10.607 2.93-2.928 7.678-2.928 10.607 0l21.337 21.338 62.204-62.206c2.93-2.928 7.678-2.928 10.607 0 2.931 2.93 2.931 7.678.002 10.607z" fill="#fff5f5"/></g></svg>